<?xml version="1.0" encoding="UTF-8"?>
<svg xmlns="http://www.w3.org/2000/svg" version="1.1" viewBox="0 0 184 60">
  <defs>
    <style>
      .cls-1 {
        fill: #102147;
      }
    </style>
  </defs>
  <!-- Generator: Adobe Illustrator 28.6.0, SVG Export Plug-In . SVG Version: 1.2.0 Build 709)  -->
  <g>
    <g id="Layer_1">
      <g>
        <path class="cls-1" d="M142.48,11.23c.1-.14.05-.28.05-.42,0-2.88,0-5.77,0-8.65,0-.59.02-.6.61-.6,3.74,0,7.47,0,11.21,0,.57,0,.57,0,.57.58,0,1.49,0,2.98,0,4.45.09.06.12.02.16-.02,2.23-2.86,5.19-4.51,8.72-5.14,3.26-.58,6.48-.4,9.56.87,4.02,1.65,6.61,4.67,8.03,8.73.69,1.96,1.02,3.99,1.05,6.06.13,8.04.02,16.08.06,24.12,0,.37-.11.51-.5.51-3.76-.01-7.52,0-11.29,0-.53,0-.53,0-.53-.53,0-7.15.01-14.3-.01-21.46,0-1.96-.4-3.83-1.61-5.45-1.24-1.65-2.93-2.51-4.96-2.7-1.27-.12-2.55-.09-3.78.34-2.63.92-4.09,2.84-4.66,5.5-.18.85-.25,1.71-.25,2.57,0,6.99,0,13.98,0,20.98,0,.15,0,.29,0,.44,0,.22-.11.31-.32.3-.09,0-.19,0-.28,0-3.74,0-7.47,0-11.21,0-.57,0-.58,0-.58-.58,0-2.71,0-5.42,0-8.14,0-.14.04-.29-.04-.42-.11.03-.13.13-.18.2-2.77,4.59-6.84,7.4-11.97,8.75-2.31.61-4.67.92-7.06.79-7.02-.37-12.39-3.52-15.9-9.67-1.57-2.75-2.37-5.76-2.76-8.89-.2-1.62-.33-3.25-.22-4.9-.18.49-.36.98-.53,1.48-2.45,6.91-4.9,13.83-7.35,20.74q-.22.63-.89.63c-4.67,0-9.33,0-14,0-.41,0-.61-.11-.75-.51-2.1-5.95-4.21-11.9-6.32-17.85-.55-1.55-1.1-3.1-1.72-4.65,0,.14-.01.27,0,.41.15,1.65.06,3.29-.08,4.93-.05.55-.06.58-.62.58-8.85,0-17.71,0-26.56,0-.15,0-.29,0-.44,0-.15,0-.22.09-.2.23.28,2.69,1.35,5.67,4.85,6.87,2.47.85,4.93.71,7.13-.91.74-.54,1.29-1.26,1.69-2.09.14-.29.31-.41.64-.41,4.07.01,8.14,0,12.2,0,.51,0,.53.03.39.52-1.44,4.87-4.37,8.54-8.82,10.99-2.49,1.37-5.17,2.12-8.01,2.34-3.31.25-6.56,0-9.71-1.12-3.85-1.36-6.98-3.69-9.26-7.1-.02-.03-.04-.07-.07-.1-.07-.09-.1-.25-.24-.24-.14,0-.14.17-.18.28-1.05,2.72-2.95,4.66-5.47,6.05-2.45,1.35-5.1,2.03-7.87,2.23-2.99.22-5.95.08-8.85-.73-3.09-.86-5.87-2.28-8.12-4.61-2.12-2.19-3.39-4.8-3.74-7.84-.05-.46,0-.52.44-.52,3.78,0,7.55,0,11.33,0,.22,0,.41-.01.47.29.42,2.27,1.93,3.51,4.03,4.09,1.47.41,2.97.36,4.45-.07.5-.15.95-.41,1.36-.74,1.4-1.11,1.5-3.65-.8-4.62-1.72-.73-3.51-1.24-5.31-1.69-2.52-.62-5.03-1.25-7.46-2.17-2.33-.89-4.28-2.3-5.71-4.36-.93-1.34-1.32-2.88-1.47-4.49-.17-1.87.03-3.69.72-5.44,1.04-2.62,2.87-4.53,5.29-5.91,2.35-1.34,4.9-2.01,7.58-2.26,2.92-.28,5.82-.18,8.66.58,4.75,1.27,8.13,4.14,9.97,8.74.02.06.06.12.11.22.37-.58.69-1.13,1.06-1.66,2.75-3.95,6.55-6.36,11.21-7.4,4.75-1.07,9.45-.85,14.01.98,3.15,1.26,5.74,3.26,7.74,6.01.03.04.07.08.11.13.09-.13,0-.23-.04-.32-.75-2.12-1.5-4.23-2.25-6.35-.16-.45-.14-.49.36-.49,4.08,0,8.16,0,12.24,0,.35,0,.51.12.61.46,1.71,5.65,3.43,11.29,5.15,16.93,1.07,3.51,2.13,7.02,3.2,10.52.04.12.09.24.17.47.26-.84.49-1.58.72-2.33,1.88-6.19,3.76-12.38,5.64-18.57.7-2.31,1.42-4.62,2.1-6.94.12-.4.3-.54.72-.54,4.01.02,8.03,0,12.04,0,.57,0,.58.02.39.56-.75,2.13-1.51,4.26-2.26,6.39-.05.13-.09.27-.08.43.28-.34.56-.69.85-1.03,2.28-2.64,5.11-4.46,8.39-5.6,2.95-1.03,6-1.54,9.13-1.4,5.01.22,9.37,1.99,12.87,5.67,1.23,1.29,2.22,2.75,3.05,4.32.06.11.08.25.22.33ZM142.53,23.56c0-.49-.01-.98,0-1.48,0-.3-.07-.4-.39-.34-1.23.22-2.46.42-3.69.62-4.2.7-8.41,1.41-12.61,2.11-2.68.45-5.37.9-8.05,1.35-.21.04-.36.09-.29.35.49,1.75,1.26,3.34,2.72,4.49,1.82,1.44,3.9,1.84,6.16,1.39,2.54-.5,4.38-1.84,5.21-4.37.13-.38.34-.5.71-.56,3.27-.54,6.55-1.1,9.82-1.64.33-.05.42-.2.41-.5-.01-.48,0-.96,0-1.44ZM32.54,21.8c.03-.05.06-.07.06-.09,0-.09,0-.19.01-.28.04-2.09.25-4.16.78-6.19.13-.5.12-.51-.4-.51-2.63,0-5.26,0-7.89,0-.38,0-.53-.12-.6-.49-.29-1.43-1.06-2.56-2.35-3.24-1.95-1.02-4-1.08-6.05-.32-.82.31-1.4.91-1.64,1.78-.36,1.29.15,2.45,1.41,3.14.97.53,2.03.86,3.09,1.15,2.37.65,4.77,1.15,7.11,1.92,1.79.59,3.6,1.14,5.19,2.19.44.29.85.61,1.28.92ZM52.59,17.72c2.39,0,4.78,0,7.18,0,.35,0,.47-.11.45-.46-.08-1.85-.79-3.4-2.23-4.58-1.92-1.58-4.17-2.02-6.56-1.65-3.45.52-5.73,2.83-6.36,6.25-.07.36,0,.46.38.45,2.38-.01,4.76,0,7.14,0ZM116.38,18.3c-.02.75-.02.75.61.64,3.21-.54,6.41-1.07,9.62-1.61,1.45-.24,2.91-.49,4.36-.73.26-.04.42-.13.35-.44-.39-1.7-1.23-3.1-2.73-4.05-1.9-1.21-3.97-1.38-6.13-.95-3.55.72-6,3.58-6.08,7.15Z"/>
        <path class="cls-1" d="M88.07,53.43c-1.18,0-2.37,0-3.55,0-.35,0-.51.02-.45.47.25,2.03,1.77,3.38,3.81,3.3,1.58-.06,2.83-.82,3.26-2.27.07-.25.74-.41.91-.22.12.13.03.28-.02.41-.47,1.49-1.5,2.4-3,2.73-1.48.32-2.91.18-4.17-.78-.98-.75-1.49-1.78-1.69-2.97-.17-1.05-.11-2.09.28-3.1.67-1.73,1.97-2.63,3.78-2.8,1.27-.12,2.47.11,3.48.96,1.24,1.04,1.6,2.42,1.49,3.97-.02.27-.21.29-.43.29-1.24,0-2.47,0-3.71,0ZM87.65,52.66c1.09,0,2.18,0,3.27,0,.29,0,.4-.09.39-.39-.05-.96-.36-1.81-1.1-2.43-1.19-.99-2.55-1.14-3.96-.58-1.31.51-1.95,1.55-2.16,2.92-.06.41.04.5.43.49,1.05-.02,2.1,0,3.15,0Z"/>
        <path class="cls-1" d="M129.21,53.43c-1.18,0-2.37.01-3.55,0-.38,0-.49.06-.43.48.21,1.64,1.18,2.82,2.75,3.17,1.35.3,2.59.07,3.61-.93.33-.32.54-.72.68-1.16.1-.29.68-.49.91-.3.16.12.05.28.01.4-.27.96-.85,1.71-1.69,2.23-1.65,1.02-4.12.87-5.62-.36-.73-.6-1.19-1.39-1.43-2.3-.33-1.24-.3-2.48.16-3.68.66-1.73,1.98-2.62,3.78-2.79,1.22-.11,2.39.1,3.38.9,1.3,1.03,1.67,2.43,1.58,4.01-.02.29-.21.32-.45.32-1.24,0-2.47,0-3.71,0ZM128.81,52.66c1.09,0,2.18,0,3.27,0,.29,0,.4-.09.39-.39-.05-.96-.36-1.81-1.1-2.43-1.19-.99-2.55-1.14-3.96-.58-1.31.51-1.95,1.55-2.16,2.92-.06.41.03.5.43.49,1.05-.02,2.1,0,3.15,0Z"/>
        <path class="cls-1" d="M50.41,57.99c-1.43-.03-2.47-.26-3.29-1.1-.34-.36-.54-.79-.63-1.26-.02-.14-.15-.4.14-.4.25,0,.64-.18.73.19.19.75.63,1.26,1.33,1.52.87.32,1.76.4,2.64.04.56-.23.94-.64,1.09-1.24.16-.63-.07-1.17-.64-1.54-.51-.33-1.1-.45-1.68-.61-.7-.2-1.41-.37-2.07-.71-.77-.4-1.26-.98-1.33-1.89-.08-1.04.35-1.8,1.23-2.32,1.48-.87,3.6-.6,4.71.59.4.43.56.95.64,1.51.03.19-.05.33-.25.31-.23-.02-.6.15-.64-.21-.19-1.88-2.52-2.28-3.76-1.66-.59.3-1.02.75-1.05,1.44-.02.66.32,1.13.88,1.46.52.31,1.11.44,1.68.61.54.17,1.1.31,1.63.51.91.35,1.55.95,1.58,1.99.03,1.02-.43,1.79-1.31,2.29-.6.34-1.26.49-1.64.46Z"/>
        <path class="cls-1" d="M107.86,52.59c0,.96,0,1.91,0,2.87,0,1.11.47,1.57,1.58,1.59.32,0,.64,0,.96,0,.25,0,.25.19.25.37,0,.17.03.39-.22.39-.64,0-1.27.08-1.91-.05-.84-.17-1.32-.7-1.48-1.52-.07-.34-.11-.68-.11-1.03,0-1.87,0-3.75.01-5.62,0-.37-.11-.52-.47-.47-.16.02-.32,0-.48,0-.32.03-.49-.07-.49-.44,0-.36.2-.4.48-.4.95,0,.95-.01.95-.98,0-.36,0-.72,0-1.08,0-.34.23-.33.46-.33.24,0,.46,0,.46.34,0,.54.02,1.09,0,1.63-.01.34.12.44.44.43.62-.02,1.25,0,1.87,0,.31,0,.5.05.49.43,0,.36-.18.41-.48.41-.62-.01-1.25.01-1.87,0-.34-.01-.47.09-.46.45.02,1.01,0,2.02,0,3.03h0Z"/>
        <path class="cls-1" d="M68.7,53.05c0,1.44,0,2.87,0,4.31,0,.33-.08.47-.44.47-.36,0-.49-.11-.49-.48.01-2.87.01-5.74,0-8.61,0-.35.13-.46.47-.46.35,0,.46.12.46.47-.01,1.44,0,2.87,0,4.31Z"/>
        <path class="cls-1" d="M68.99,45.57c.01.41-.3.74-.71.76-.41.01-.73-.29-.74-.71-.01-.41.31-.75.7-.76.41,0,.74.31.75.72Z"/>
      </g>
    </g>
  </g>
</svg>